<svg xmlns="http://www.w3.org/2000/svg" viewBox="0 0 1200 820">
  <defs>
    <linearGradient id="bg" x1="0" y1="0" x2="1" y2="1">
      <stop offset="0" stop-color="#f7efe1"/>
      <stop offset=".48" stop-color="#fff8ec"/>
      <stop offset="1" stop-color="#17120c"/>
    </linearGradient>
    <linearGradient id="hero" x1="0" y1="0" x2="1" y2="1">
      <stop offset="0" stop-color="#19130d"/>
      <stop offset="1" stop-color="#060403"/>
    </linearGradient>
  </defs>
  <rect width="1200" height="820" rx="34" fill="url(#bg)"/>
  <rect x="44" y="44" width="1112" height="70" rx="22" fill="#060403"/>
  <circle cx="88" cy="79" r="10" fill="#f7efe1"/>
  <circle cx="118" cy="79" r="10" fill="#4ade80"/>
  <circle cx="148" cy="79" r="10" fill="#f7efe1"/>
  <text x="196" y="88" font-family="Arial, sans-serif" font-size="30" font-weight="700" fill="#f7efe1">Saba Cafe</text>
  <text x="780" y="86" font-family="Arial, sans-serif" font-size="18" fill="#a9b8af">Menu</text>
  <text x="862" y="86" font-family="Arial, sans-serif" font-size="18" fill="#a9b8af">Order</text>
  <text x="948" y="86" font-family="Arial, sans-serif" font-size="18" fill="#a9b8af">Book</text>
  <rect x="1015" y="61" width="104" height="36" rx="18" fill="#f7efe1"/>
  <text x="1038" y="85" font-family="Arial, sans-serif" font-size="16" font-weight="700" fill="#07110c">QR order</text>
  <rect x="70" y="146" width="1060" height="344" rx="30" fill="url(#hero)"/>
  <circle cx="1000" cy="214" r="128" fill="#f7efe1" opacity=".18"/>
  <text x="118" y="228" font-family="Georgia, serif" font-size="72" font-weight="700" fill="#f7efe1">Fresh food.</text>
  <text x="118" y="306" font-family="Georgia, serif" font-size="72" font-style="italic" font-weight="700" fill="#f7efe1">Faster orders.</text>
  <text x="122" y="360" font-family="Arial, sans-serif" font-size="24" fill="#e9dcc8">Mobile-first restaurant website with QR table ordering, menu browsing, and admin-ready workflows.</text>
  <rect x="122" y="400" width="148" height="52" rx="26" fill="#f7efe1"/>
  <text x="156" y="434" font-family="Arial, sans-serif" font-size="18" font-weight="700" fill="#07110c">Order now</text>
  <rect x="296" y="400" width="164" height="52" rx="26" fill="none" stroke="#f7efe1" stroke-width="2"/>
  <text x="333" y="434" font-family="Arial, sans-serif" font-size="18" font-weight="700" fill="#f7efe1">View menu</text>
  <rect x="746" y="222" width="300" height="204" rx="26" fill="#f7efe1"/>
  <rect x="770" y="250" width="252" height="42" rx="14" fill="#e8fff0"/>
  <rect x="770" y="310" width="252" height="42" rx="14" fill="#e8fff0"/>
  <rect x="770" y="370" width="160" height="34" rx="12" fill="#f7efe1"/>
  <text x="792" y="278" font-family="Arial, sans-serif" font-size="18" font-weight="700" fill="#17120c">Table 12</text>
  <text x="792" y="338" font-family="Arial, sans-serif" font-size="18" font-weight="700" fill="#17120c">3 items</text>
  <text x="800" y="393" font-family="Arial, sans-serif" font-size="15" font-weight="700" fill="#07110c">Send to kitchen</text>
  <rect x="70" y="530" width="325" height="210" rx="28" fill="#ffffff" opacity=".92"/>
  <rect x="438" y="530" width="325" height="210" rx="28" fill="#ffffff" opacity=".92"/>
  <rect x="806" y="530" width="325" height="210" rx="28" fill="#ffffff" opacity=".92"/>
  <text x="112" y="594" font-family="Arial, sans-serif" font-size="20" font-weight="700" fill="#17120c">QR menu journey</text>
  <text x="112" y="636" font-family="Arial, sans-serif" font-size="16" fill="#536159">Customers scan, browse, and order without waiting.</text>
  <text x="480" y="594" font-family="Arial, sans-serif" font-size="20" font-weight="700" fill="#17120c">Admin dashboard</text>
  <text x="480" y="636" font-family="Arial, sans-serif" font-size="16" fill="#536159">Orders, tables, and menu content ready to manage.</text>
  <text x="848" y="594" font-family="Arial, sans-serif" font-size="20" font-weight="700" fill="#17120c">SEO foundation</text>
  <text x="848" y="636" font-family="Arial, sans-serif" font-size="16" fill="#536159">Built for local restaurant discovery in London.</text>
</svg>
